# xmcd CD database file
#
# Track frame offsets:
#	150
#	17224
#	34969
#	53283
#	72756
#
# Disc length: 1157 seconds
#
# Revision: 0
# Processed by: cddbd v1.5.1PL0 Copyright (c) Steve Scherf et al.
# Submitted via: CDex 1.51
#
DISCID=37048305
DTITLE=DOPING PANDA - High Pressure
DYEAR=2005
DGENRE=Punk Rock
TTITLE0=Naked
TTITLE1=The Fire
TTITLE2=Selfish Morning Anniversary
TTITLE3=sea side club music
TTITLE4=Riot Against The Control
EXTD=YEAR: 2005
EXTT0=
EXTT1=
EXTT2=
EXTT3=
EXTT4=
PLAYORDER=
